<?xml version="1.0" encoding="UTF-8"?>
<!DOCTYPE svg PUBLIC "-//W3C//DTD SVG 1.1//EN" "http://www.w3.org/Graphics/SVG/1.1/DTD/svg11.dtd">
<svg xmlns="http://www.w3.org/2000/svg" version="1.1" width="512px" height="512px" style="shape-rendering:geometricPrecision; text-rendering:geometricPrecision; image-rendering:optimizeQuality; fill-rule:evenodd; clip-rule:evenodd" xmlns:xlink="http://www.w3.org/1999/xlink">
<g><path style="opacity:1" fill="#159e91" d="M 160.5,37.5 C 161.263,38.2679 162.263,38.7679 163.5,39C 159.5,40 159.5,41 163.5,42C 162.687,43.3139 161.687,44.4805 160.5,45.5C 161.167,45.8333 161.833,46.1667 162.5,46.5C 160.009,47.5407 160.009,48.3741 162.5,49C 160.009,49.6259 160.009,50.4593 162.5,51.5C 161.833,51.8333 161.167,52.1667 160.5,52.5C 161.002,53.7164 161.335,54.8831 161.5,56C 160.377,57.0437 159.044,57.7104 157.5,58C 158.448,58.4828 159.448,58.6495 160.5,58.5C 160.5,59.5 160.5,60.5 160.5,61.5C 156.689,61.5958 156.689,62.2624 160.5,63.5C 156.639,64.5976 156.639,65.4309 160.5,66C 158.083,67.1437 157.416,68.8103 158.5,71C 151.833,71.6667 151.833,72.3333 158.5,73C 157.139,74.5843 156.472,76.4176 156.5,78.5C 153.402,78.4125 153.068,78.9125 155.5,80C 154.377,81.0437 153.044,81.7104 151.5,82C 152.5,82.3333 153.5,82.6667 154.5,83C 153.167,83.6667 153.167,84.3333 154.5,85C 153.24,86.113 152.073,86.2797 151,85.5C 150.544,86.7441 151.044,87.5774 152.5,88C 150.699,88.3173 150.366,88.984 151.5,90C 150.726,92.4397 149.06,93.773 146.5,94C 149.167,94.6667 149.167,95.3333 146.5,96C 147.167,96.3333 147.833,96.6667 148.5,97C 146.913,97.8624 145.246,98.5291 143.5,99C 147.5,99.6667 147.5,100.333 143.5,101C 144.167,101.333 144.833,101.667 145.5,102C 139.825,102.464 139.492,103.131 144.5,104C 143.051,105.117 141.384,105.784 139.5,106C 142.544,106.359 142.878,107.026 140.5,108C 140.833,108.333 141.167,108.667 141.5,109C 140.167,109.667 139.167,110.667 138.5,112C 136.833,112.333 135.167,112.667 133.5,113C 137.272,113.611 137.272,114.611 133.5,116C 134.641,116.741 134.641,117.575 133.5,118.5C 131.234,119.314 128.9,119.814 126.5,120C 131.621,121.423 131.621,122.423 126.5,123C 127.167,123.333 127.833,123.667 128.5,124C 125.725,126.461 122.725,128.461 119.5,130C 120.167,130.333 120.833,130.667 121.5,131C 118.623,132.127 115.623,132.794 112.5,133C 114.167,133.333 115.833,133.667 117.5,134C 115.3,136.046 112.633,137.046 109.5,137C 110.833,137.333 112.167,137.667 113.5,138C 110.956,139.092 108.289,139.759 105.5,140C 109.5,140.667 109.5,141.333 105.5,142C 105.833,142.333 106.167,142.667 106.5,143C 104.212,143.822 101.878,144.489 99.5,145C 100.167,145.333 100.833,145.667 101.5,146C 98.5,146.333 95.5,146.667 92.5,147C 94.1667,147.333 95.8333,147.667 97.5,148C 93.5314,148.853 89.5314,149.519 85.5,150C 87.1667,150.333 88.8333,150.667 90.5,151C 89.3279,151.419 88.3279,152.085 87.5,153C 83.4592,153.173 79.4592,153.673 75.5,154.5C 77.9016,154.522 80.5682,154.689 83.5,155C 77.5506,156.073 71.5506,156.74 65.5,157C 68.1667,157.333 70.8333,157.667 73.5,158C 71.2852,158.17 69.2852,158.837 67.5,160C 57.6063,160.608 47.6063,161.775 37.5,163.5C 37.5,121.5 37.5,79.5 37.5,37.5C 78.5,37.5 119.5,37.5 160.5,37.5 Z"/></g>
<g><path style="opacity:1" fill="#109c8f" d="M 160.5,37.5 C 193.5,37.5 226.5,37.5 259.5,37.5C 260.609,38.29 261.942,38.79 263.5,39C 261.109,40.3086 261.109,41.3086 263.5,42C 262.167,42.6667 262.167,43.3333 263.5,44C 258.279,44.5423 258.279,45.3756 263.5,46.5C 262.624,47.2508 261.624,47.7508 260.5,48C 261.973,48.7096 262.64,49.8762 262.5,51.5C 258.689,51.5958 258.689,52.2624 262.5,53.5C 261.624,54.2508 260.624,54.7508 259.5,55C 263.5,56 263.5,57 259.5,58C 260.448,58.4828 261.448,58.6495 262.5,58.5C 262.5,59.5 262.5,60.5 262.5,61.5C 258.689,61.5958 258.689,62.2624 262.5,63.5C 258.639,64.5976 258.639,65.4309 262.5,66C 261.5,67 260.5,68 259.5,69C 260.308,69.3076 260.975,69.8076 261.5,70.5C 256.279,71.6244 256.279,72.4577 261.5,73C 260.833,73.3333 260.167,73.6667 259.5,74C 260.051,75.3985 260.384,76.7318 260.5,78C 258.833,78.3333 257.167,78.6667 255.5,79C 260.833,80 260.833,81 255.5,82C 259.648,82.4578 260.481,84.2911 258,87.5C 257.25,88.1258 256.416,88.6258 255.5,89C 260.051,90.2148 264.718,90.8814 269.5,91C 259.658,91.17 249.991,91.67 240.5,92.5C 201.675,96.3772 168.342,111.877 140.5,139C 112.325,167.003 96.3245,200.836 92.5,240.5C 91.67,249.991 91.17,259.658 91,269.5C 90.5012,265.514 90.3345,261.514 90.5,257.5C 87.7276,257.22 85.2276,257.887 83,259.5C 78.2523,258.365 73.419,258.198 68.5,259C 71.8333,259.333 75.1667,259.667 78.5,260C 65.2572,262.251 51.5905,263.084 37.5,262.5C 37.5,229.5 37.5,196.5 37.5,163.5C 47.6063,161.775 57.6063,160.608 67.5,160C 69.2852,158.837 71.2852,158.17 73.5,158C 70.8333,157.667 68.1667,157.333 65.5,157C 71.5506,156.74 77.5506,156.073 83.5,155C 80.5682,154.689 77.9016,154.522 75.5,154.5C 79.4592,153.673 83.4592,153.173 87.5,153C 88.3279,152.085 89.3279,151.419 90.5,151C 88.8333,150.667 87.1667,150.333 85.5,150C 89.5314,149.519 93.5314,148.853 97.5,148C 95.8333,147.667 94.1667,147.333 92.5,147C 95.5,146.667 98.5,146.333 101.5,146C 100.833,145.667 100.167,145.333 99.5,145C 101.878,144.489 104.212,143.822 106.5,143C 106.167,142.667 105.833,142.333 105.5,142C 109.5,141.333 109.5,140.667 105.5,140C 108.289,139.759 110.956,139.092 113.5,138C 112.167,137.667 110.833,137.333 109.5,137C 112.633,137.046 115.3,136.046 117.5,134C 115.833,133.667 114.167,133.333 112.5,133C 115.623,132.794 118.623,132.127 121.5,131C 120.833,130.667 120.167,130.333 119.5,130C 122.725,128.461 125.725,126.461 128.5,124C 127.833,123.667 127.167,123.333 126.5,123C 131.621,122.423 131.621,121.423 126.5,120C 128.9,119.814 131.234,119.314 133.5,118.5C 134.641,117.575 134.641,116.741 133.5,116C 137.272,114.611 137.272,113.611 133.5,113C 135.167,112.667 136.833,112.333 138.5,112C 139.167,110.667 140.167,109.667 141.5,109C 141.167,108.667 140.833,108.333 140.5,108C 142.878,107.026 142.544,106.359 139.5,106C 141.384,105.784 143.051,105.117 144.5,104C 139.492,103.131 139.825,102.464 145.5,102C 144.833,101.667 144.167,101.333 143.5,101C 147.5,100.333 147.5,99.6667 143.5,99C 145.246,98.5291 146.913,97.8624 148.5,97C 147.833,96.6667 147.167,96.3333 146.5,96C 149.167,95.3333 149.167,94.6667 146.5,94C 149.06,93.773 150.726,92.4397 151.5,90C 150.366,88.984 150.699,88.3173 152.5,88C 151.044,87.5774 150.544,86.7441 151,85.5C 152.073,86.2797 153.24,86.113 154.5,85C 153.167,84.3333 153.167,83.6667 154.5,83C 153.5,82.6667 152.5,82.3333 151.5,82C 153.044,81.7104 154.377,81.0437 155.5,80C 153.068,78.9125 153.402,78.4125 156.5,78.5C 156.472,76.4176 157.139,74.5843 158.5,73C 151.833,72.3333 151.833,71.6667 158.5,71C 157.416,68.8103 158.083,67.1437 160.5,66C 156.639,65.4309 156.639,64.5976 160.5,63.5C 156.689,62.2624 156.689,61.5958 160.5,61.5C 160.5,60.5 160.5,59.5 160.5,58.5C 159.448,58.6495 158.448,58.4828 157.5,58C 159.044,57.7104 160.377,57.0437 161.5,56C 161.335,54.8831 161.002,53.7164 160.5,52.5C 161.167,52.1667 161.833,51.8333 162.5,51.5C 160.009,50.4593 160.009,49.6259 162.5,49C 160.009,48.3741 160.009,47.5407 162.5,46.5C 161.833,46.1667 161.167,45.8333 160.5,45.5C 161.687,44.4805 162.687,43.3139 163.5,42C 159.5,41 159.5,40 163.5,39C 162.263,38.7679 161.263,38.2679 160.5,37.5 Z"/></g>
<g><path style="opacity:1" fill="#09998b" d="M 259.5,37.5 C 293.5,37.5 327.5,37.5 361.5,37.5C 365.494,38.3733 365.494,39.54 361.5,41C 362.448,41.4828 363.448,41.6495 364.5,41.5C 364.5,42.5 364.5,43.5 364.5,44.5C 363.448,44.3505 362.448,44.5172 361.5,45C 365.272,46.3893 365.272,47.3893 361.5,48C 362.448,48.4828 363.448,48.6495 364.5,48.5C 364.915,51.368 363.915,53.5347 361.5,55C 364.167,56 364.167,57 361.5,58C 364.167,58.6667 364.167,59.3333 361.5,60C 363.991,60.6259 363.991,61.4593 361.5,62.5C 362.167,62.8333 362.833,63.1667 363.5,63.5C 358.279,64.6244 358.279,65.4577 363.5,66C 362.833,66.3333 362.167,66.6667 361.5,67C 362.051,68.3985 362.384,69.7318 362.5,71C 355.833,71.6667 355.833,72.3333 362.5,73C 361.377,74.0437 360.044,74.7104 358.5,75C 359.448,75.4828 360.448,75.6495 361.5,75.5C 361.5,76.5 361.5,77.5 361.5,78.5C 357.689,78.5958 357.689,79.2624 361.5,80.5C 360.624,81.2508 359.624,81.7508 358.5,82C 361.649,82.776 362.149,84.276 360,86.5C 358.334,85.6598 358.167,86.1598 359.5,88C 357.122,88.9745 357.456,89.6411 360.5,90C 359.833,90.3333 359.167,90.6667 358.5,91C 359.051,92.3985 359.384,93.7318 359.5,95C 355.5,95.6667 355.5,96.3333 359.5,97C 358.051,98.117 356.384,98.7837 354.5,99C 359.328,99.6057 359.328,100.939 354.5,103C 358.5,104 358.5,105 354.5,106C 356.991,106.626 356.991,107.459 354.5,108.5C 355.002,109.716 355.335,110.883 355.5,112C 354.167,112.333 352.833,112.667 351.5,113C 355.5,114 355.5,115 351.5,116C 352.448,116.483 353.448,116.649 354.5,116.5C 354.5,117.5 354.5,118.5 354.5,119.5C 352.435,119.517 350.435,119.85 348.5,120.5C 317.517,99.5008 283.184,90.1674 245.5,92.5C 243.833,92.5 242.167,92.5 240.5,92.5C 249.991,91.67 259.658,91.17 269.5,91C 264.718,90.8814 260.051,90.2148 255.5,89C 256.416,88.6258 257.25,88.1258 258,87.5C 260.481,84.2911 259.648,82.4578 255.5,82C 260.833,81 260.833,80 255.5,79C 257.167,78.6667 258.833,78.3333 260.5,78C 260.384,76.7318 260.051,75.3985 259.5,74C 260.167,73.6667 260.833,73.3333 261.5,73C 256.279,72.4577 256.279,71.6244 261.5,70.5C 260.975,69.8076 260.308,69.3076 259.5,69C 260.5,68 261.5,67 262.5,66C 258.639,65.4309 258.639,64.5976 262.5,63.5C 258.689,62.2624 258.689,61.5958 262.5,61.5C 262.5,60.5 262.5,59.5 262.5,58.5C 261.448,58.6495 260.448,58.4828 259.5,58C 263.5,57 263.5,56 259.5,55C 260.624,54.7508 261.624,54.2508 262.5,53.5C 258.689,52.2624 258.689,51.5958 262.5,51.5C 262.64,49.8762 261.973,48.7096 260.5,48C 261.624,47.7508 262.624,47.2508 263.5,46.5C 258.279,45.3756 258.279,44.5423 263.5,44C 262.167,43.3333 262.167,42.6667 263.5,42C 261.109,41.3086 261.109,40.3086 263.5,39C 261.942,38.79 260.609,38.29 259.5,37.5 Z"/></g>
<g><path style="opacity:1" fill="#019688" d="M 361.5,37.5 C 398.833,37.5 436.167,37.5 473.5,37.5C 473.5,182.833 473.5,328.167 473.5,473.5C 328.167,473.5 182.833,473.5 37.5,473.5C 37.5,437.167 37.5,400.833 37.5,364.5C 42.8437,364.666 48.1771,364.499 53.5,364C 54.7014,363.097 55.5348,361.931 56,360.5C 57,364.5 58,364.5 59,360.5C 59.3173,362.301 59.984,362.634 61,361.5C 62.0852,362.293 63.2519,362.96 64.5,363.5C 72.0925,362.185 79.7592,361.351 87.5,361C 86.8333,360.667 86.1667,360.333 85.5,360C 100.167,359.333 100.167,358.667 85.5,358C 94.5367,357.765 103.537,357.098 112.5,356C 110.167,355.667 107.833,355.333 105.5,355C 110.202,354.828 114.868,354.328 119.5,353.5C 120.275,351.698 121.275,351.031 122.5,351.5C 125.6,355.356 128.933,359.023 132.5,362.5C 159.968,394.907 194.968,413.74 237.5,419C 289.833,419.667 342.167,419.667 394.5,419C 406.667,414.833 414.833,406.667 419,394.5C 419.667,342.167 419.667,289.833 419,237.5C 413.74,194.968 394.907,159.968 362.5,132.5C 358.128,128.126 353.461,124.126 348.5,120.5C 350.435,119.85 352.435,119.517 354.5,119.5C 354.5,118.5 354.5,117.5 354.5,116.5C 353.448,116.649 352.448,116.483 351.5,116C 355.5,115 355.5,114 351.5,113C 352.833,112.667 354.167,112.333 355.5,112C 355.335,110.883 355.002,109.716 354.5,108.5C 356.991,107.459 356.991,106.626 354.5,106C 358.5,105 358.5,104 354.5,103C 359.328,100.939 359.328,99.6057 354.5,99C 356.384,98.7837 358.051,98.117 359.5,97C 355.5,96.3333 355.5,95.6667 359.5,95C 359.384,93.7318 359.051,92.3985 358.5,91C 359.167,90.6667 359.833,90.3333 360.5,90C 357.456,89.6411 357.122,88.9745 359.5,88C 358.167,86.1598 358.334,85.6598 360,86.5C 362.149,84.276 361.649,82.776 358.5,82C 359.624,81.7508 360.624,81.2508 361.5,80.5C 357.689,79.2624 357.689,78.5958 361.5,78.5C 361.5,77.5 361.5,76.5 361.5,75.5C 360.448,75.6495 359.448,75.4828 358.5,75C 360.044,74.7104 361.377,74.0437 362.5,73C 355.833,72.3333 355.833,71.6667 362.5,71C 362.384,69.7318 362.051,68.3985 361.5,67C 362.167,66.6667 362.833,66.3333 363.5,66C 358.279,65.4577 358.279,64.6244 363.5,63.5C 362.833,63.1667 362.167,62.8333 361.5,62.5C 363.991,61.4593 363.991,60.6259 361.5,60C 364.167,59.3333 364.167,58.6667 361.5,58C 364.167,57 364.167,56 361.5,55C 363.915,53.5347 364.915,51.368 364.5,48.5C 363.448,48.6495 362.448,48.4828 361.5,48C 365.272,47.3893 365.272,46.3893 361.5,45C 362.448,44.5172 363.448,44.3505 364.5,44.5C 364.5,43.5 364.5,42.5 364.5,41.5C 363.448,41.6495 362.448,41.4828 361.5,41C 365.494,39.54 365.494,38.3733 361.5,37.5 Z"/></g>
<g><path style="opacity:1" fill="#0f100f" d="M 240.5,92.5 C 242.167,92.5 243.833,92.5 245.5,92.5C 251.987,93.3283 258.654,93.8283 265.5,94C 261.106,94.3028 256.773,94.9695 252.5,96C 257.621,96.5768 257.621,97.5768 252.5,99C 255.167,99.6667 255.167,100.333 252.5,101C 254.991,101.626 254.991,102.459 252.5,103.5C 252.709,104.086 253.043,104.586 253.5,105C 251.833,105.333 250.167,105.667 248.5,106C 253.015,106.237 253.682,107.903 250.5,111C 250.833,111.333 251.167,111.667 251.5,112C 247.148,112.419 246.815,113.086 250.5,114C 249.051,115.117 247.384,115.784 245.5,116C 250.228,116.595 250.228,118.095 245.5,120.5C 246.529,120.296 247.529,120.796 248.5,122C 242.207,122.392 236.207,123.559 230.5,125.5C 185.252,136.895 152.752,163.895 133,206.5C 129.644,215.564 127.144,224.897 125.5,234.5C 124.593,236.657 123.927,238.99 123.5,241.5C 122.566,242.568 122.232,243.901 122.5,245.5C 121.5,245.5 120.5,245.5 119.5,245.5C 119.5,246.5 119.5,247.5 119.5,248.5C 116.15,248.335 112.817,248.502 109.5,249C 111.5,249.333 113.5,249.667 115.5,250C 109.295,252.183 102.295,254.016 94.5,255.5C 94.665,258.85 94.4983,262.183 94,265.5C 93.8283,258.654 93.3283,251.987 92.5,245.5C 92.5,243.833 92.5,242.167 92.5,240.5C 96.3245,200.836 112.325,167.003 140.5,139C 168.342,111.877 201.675,96.3772 240.5,92.5 Z"/></g>
<g><path style="opacity:1" fill="#090b0b" d="M 245.5,92.5 C 283.184,90.1674 317.517,99.5008 348.5,120.5C 353.461,124.126 358.128,128.126 362.5,132.5C 361.883,132.611 361.383,132.944 361,133.5C 358.443,130.808 355.609,128.475 352.5,126.5C 351.614,127.325 351.281,128.325 351.5,129.5C 347.107,129.457 346.774,129.957 350.5,131C 349.377,132.044 348.044,132.71 346.5,133C 347.5,133.333 348.5,133.667 349.5,134C 348.5,135 347.5,136 346.5,137C 347.308,137.308 347.975,137.808 348.5,138.5C 347.271,139.281 345.938,139.781 344.5,140C 345.5,140.333 346.5,140.667 347.5,141C 346.167,141.667 346.167,142.333 347.5,143C 346.285,145.096 345.451,144.929 345,142.5C 344.316,143.784 344.483,144.951 345.5,146C 343.833,146.333 342.167,146.667 340.5,147C 344.932,147.623 345.265,148.623 341.5,150C 342.672,150.419 343.672,151.085 344.5,152C 343.53,153.68 342.53,155.18 341.5,156.5C 309.388,129.549 272.388,119.216 230.5,125.5C 236.207,123.559 242.207,122.392 248.5,122C 247.529,120.796 246.529,120.296 245.5,120.5C 250.228,118.095 250.228,116.595 245.5,116C 247.384,115.784 249.051,115.117 250.5,114C 246.815,113.086 247.148,112.419 251.5,112C 251.167,111.667 250.833,111.333 250.5,111C 253.682,107.903 253.015,106.237 248.5,106C 250.167,105.667 251.833,105.333 253.5,105C 253.043,104.586 252.709,104.086 252.5,103.5C 254.991,102.459 254.991,101.626 252.5,101C 255.167,100.333 255.167,99.6667 252.5,99C 257.621,97.5768 257.621,96.5768 252.5,96C 256.773,94.9695 261.106,94.3028 265.5,94C 258.654,93.8283 251.987,93.3283 245.5,92.5 Z"/></g>
<g><path style="opacity:1" fill="#0a998c" d="M 341.5,156.5 C 341.2,159.639 339.867,161.305 337.5,161.5C 338.025,162.192 338.692,162.692 339.5,163C 335.148,163.419 334.815,164.086 338.5,165C 337.377,166.044 336.044,166.71 334.5,167C 337.167,167.667 337.167,168.333 334.5,169C 335.167,169.333 335.833,169.667 336.5,170C 332.148,170.419 331.815,171.086 335.5,172C 334.051,173.117 332.384,173.784 330.5,174C 334.5,174.667 334.5,175.333 330.5,176C 332.891,176.691 332.891,177.691 330.5,179C 330.833,179.333 331.167,179.667 331.5,180C 326.167,180.667 326.167,181.333 331.5,182C 330.167,182.667 328.833,183.333 327.5,184C 330.167,184.667 330.167,185.333 327.5,186C 327.833,186.333 328.167,186.667 328.5,187C 326.833,187.333 325.167,187.667 323.5,188C 327.272,188.611 327.272,189.611 323.5,191C 326.167,191.667 326.167,192.333 323.5,193C 323.833,193.333 324.167,193.667 324.5,194C 323.062,194.219 321.729,194.719 320.5,195.5C 321.025,196.192 321.692,196.692 322.5,197C 318.148,197.419 317.815,198.086 321.5,199C 320.377,200.044 319.044,200.71 317.5,201C 320.167,201.667 320.167,202.333 317.5,203C 317.833,203.333 318.167,203.667 318.5,204C 312.825,204.464 312.492,205.131 317.5,206C 316.051,207.117 314.384,207.784 312.5,208C 315.544,208.359 315.878,209.026 313.5,210C 313.833,210.333 314.167,210.667 314.5,211C 313.167,211.333 311.833,211.667 310.5,212C 311.308,212.308 311.975,212.808 312.5,213.5C 310.577,214.308 308.577,214.808 306.5,215C 312.529,215.469 312.529,217.135 306.5,220C 307.167,220.333 307.833,220.667 308.5,221C 306.833,221.333 305.167,221.667 303.5,222C 304.5,222.333 305.5,222.667 306.5,223C 304.926,223.353 303.259,224.02 301.5,225C 303.883,225.065 304.55,225.898 303.5,227.5C 301.922,228.298 300.256,228.798 298.5,229C 299.833,229.333 301.167,229.667 302.5,230C 300.608,230.973 298.608,231.64 296.5,232C 297.5,232.333 298.5,232.667 299.5,233C 297.956,233.29 296.623,233.956 295.5,235C 296.833,235.667 296.833,236.333 295.5,237C 309.673,237.169 323.673,237.669 337.5,238.5C 315.833,238.5 294.167,238.5 272.5,238.5C 272.831,216.66 272.497,194.994 271.5,173.5C 260.833,173.5 250.167,173.5 239.5,173.5C 238.503,194.994 238.169,216.66 238.5,238.5C 216.66,238.169 194.994,238.503 173.5,239.5C 173.5,250.167 173.5,260.833 173.5,271.5C 194.994,272.497 216.66,272.831 238.5,272.5C 238.5,294.167 238.5,315.833 238.5,337.5C 237.504,324.01 237.171,310.344 237.5,296.5C 235.473,296.338 233.473,296.505 231.5,297C 232.833,297.333 234.167,297.667 235.5,298C 233.212,298.822 230.878,299.489 228.5,300C 230.991,300.626 230.991,301.459 228.5,302.5C 226.167,303.167 223.833,303.833 221.5,304.5C 222.025,305.192 222.692,305.692 223.5,306C 221.833,306.333 220.167,306.667 218.5,307C 219.5,307.333 220.5,307.667 221.5,308C 218.632,310.432 215.299,311.765 211.5,312C 212.167,312.333 212.833,312.667 213.5,313C 211.833,313.333 210.167,313.667 208.5,314C 209.5,314.333 210.5,314.667 211.5,315C 208.211,315.882 204.877,316.548 201.5,317C 206.833,317.667 206.833,318.333 201.5,319C 201.833,319.333 202.167,319.667 202.5,320C 199.774,320.182 197.107,320.682 194.5,321.5C 195.025,322.192 195.692,322.692 196.5,323C 193.5,323.333 190.5,323.667 187.5,324C 189.5,324.333 191.5,324.667 193.5,325C 189.5,325.667 185.5,326.333 181.5,327C 183.5,327.333 185.5,327.667 187.5,328C 183.469,330.011 179.135,331.011 174.5,331C 176.5,331.333 178.5,331.667 180.5,332C 176.181,332.76 171.848,333.427 167.5,334C 169.167,334.333 170.833,334.667 172.5,335C 168.869,337.243 164.869,338.077 160.5,337.5C 160.5,338.5 160.5,339.5 160.5,340.5C 159.167,340.5 157.833,340.5 156.5,340.5C 137.702,319.788 127.036,295.455 124.5,267.5C 124.347,256.479 124.68,245.479 125.5,234.5C 127.144,224.897 129.644,215.564 133,206.5C 152.752,163.895 185.252,136.895 230.5,125.5C 272.388,119.216 309.388,129.549 341.5,156.5 Z"/></g>
<g><path style="opacity:1" fill="#010302" d="M 362.5,132.5 C 394.907,159.968 413.74,194.968 419,237.5C 419.667,289.833 419.667,342.167 419,394.5C 414.833,406.667 406.667,414.833 394.5,419C 342.167,419.667 289.833,419.667 237.5,419C 194.968,413.74 159.968,394.907 132.5,362.5C 132.611,361.883 132.944,361.383 133.5,361C 130.714,357.926 128.048,354.759 125.5,351.5C 129.427,350.345 133.427,349.512 137.5,349C 136.167,348.667 134.833,348.333 133.5,348C 136.5,347.667 139.5,347.333 142.5,347C 141.833,346.667 141.167,346.333 140.5,346C 146.265,345.661 151.599,344.161 156.5,341.5C 196.835,385.252 245.502,397.752 302.5,379C 368.175,348.065 395.342,296.565 384,224.5C 376.664,197.479 362.497,174.812 341.5,156.5C 342.53,155.18 343.53,153.68 344.5,152C 343.672,151.085 342.672,150.419 341.5,150C 345.265,148.623 344.932,147.623 340.5,147C 342.167,146.667 343.833,146.333 345.5,146C 344.483,144.951 344.316,143.784 345,142.5C 345.451,144.929 346.285,145.096 347.5,143C 346.167,142.333 346.167,141.667 347.5,141C 346.5,140.667 345.5,140.333 344.5,140C 345.938,139.781 347.271,139.281 348.5,138.5C 347.975,137.808 347.308,137.308 346.5,137C 347.5,136 348.5,135 349.5,134C 348.5,133.667 347.5,133.333 346.5,133C 348.044,132.71 349.377,132.044 350.5,131C 346.774,129.957 347.107,129.457 351.5,129.5C 351.281,128.325 351.614,127.325 352.5,126.5C 355.609,128.475 358.443,130.808 361,133.5C 361.383,132.944 361.883,132.611 362.5,132.5 Z"/></g>
<g><path style="opacity:1" fill="#080808" d="M 239.5,173.5 C 250.167,173.5 260.833,173.5 271.5,173.5C 271.5,195.5 271.5,217.5 271.5,239.5C 292.663,240.332 313.996,240.832 335.5,241C 319.833,241.333 304.167,241.667 288.5,242C 291.544,242.359 291.878,243.026 289.5,244C 289.833,244.333 290.167,244.667 290.5,245C 289.062,245.219 287.729,245.719 286.5,246.5C 286.709,247.086 287.043,247.586 287.5,248C 283.148,248.419 282.815,249.086 286.5,250C 285.5,250.333 284.5,250.667 283.5,251C 283.833,251.333 284.167,251.667 284.5,252C 283.09,252.368 282.09,253.201 281.5,254.5C 279.922,255.298 278.256,255.798 276.5,256C 277.833,256.333 279.167,256.667 280.5,257C 277.833,257.667 275.167,258.333 272.5,259C 273.938,259.219 275.271,259.719 276.5,260.5C 274.363,261.868 272.03,262.868 269.5,263.5C 270.582,263.749 271.915,263.915 273.5,264C 271.285,265.044 268.952,265.71 266.5,266C 271.396,266.543 271.396,267.876 266.5,270C 265.216,270.684 264.049,270.517 263,269.5C 262.544,270.744 263.044,271.577 264.5,272C 258.825,272.464 258.492,273.131 263.5,274C 262.333,274.5 261.5,275.333 261,276.5C 259.274,275.424 257.441,275.257 255.5,276C 260.833,276.667 260.833,277.333 255.5,278C 256.167,278.333 256.833,278.667 257.5,279C 251.825,279.464 251.492,280.131 256.5,281C 254.285,282.044 251.952,282.71 249.5,283C 252.167,283.667 252.167,284.333 249.5,285C 249.833,285.333 250.167,285.667 250.5,286C 249.146,287.294 247.812,287.46 246.5,286.5C 245.614,287.325 245.281,288.325 245.5,289.5C 241.107,289.457 240.774,289.957 244.5,291C 243.552,291.483 242.552,291.649 241.5,291.5C 241.667,306.17 241.5,320.837 241,335.5C 240.832,313.996 240.332,292.663 239.5,271.5C 217.5,271.5 195.5,271.5 173.5,271.5C 173.5,260.833 173.5,250.167 173.5,239.5C 195.5,239.5 217.5,239.5 239.5,239.5C 239.5,217.5 239.5,195.5 239.5,173.5 Z"/></g>
<g><path style="opacity:1" fill="#039688" d="M 341.5,156.5 C 362.497,174.812 376.664,197.479 384,224.5C 395.342,296.565 368.175,348.065 302.5,379C 245.502,397.752 196.835,385.252 156.5,341.5C 156.5,341.167 156.5,340.833 156.5,340.5C 157.833,340.5 159.167,340.5 160.5,340.5C 160.5,339.5 160.5,338.5 160.5,337.5C 164.869,338.077 168.869,337.243 172.5,335C 170.833,334.667 169.167,334.333 167.5,334C 171.848,333.427 176.181,332.76 180.5,332C 178.5,331.667 176.5,331.333 174.5,331C 179.135,331.011 183.469,330.011 187.5,328C 185.5,327.667 183.5,327.333 181.5,327C 185.5,326.333 189.5,325.667 193.5,325C 191.5,324.667 189.5,324.333 187.5,324C 190.5,323.667 193.5,323.333 196.5,323C 195.692,322.692 195.025,322.192 194.5,321.5C 197.107,320.682 199.774,320.182 202.5,320C 202.167,319.667 201.833,319.333 201.5,319C 206.833,318.333 206.833,317.667 201.5,317C 204.877,316.548 208.211,315.882 211.5,315C 210.5,314.667 209.5,314.333 208.5,314C 210.167,313.667 211.833,313.333 213.5,313C 212.833,312.667 212.167,312.333 211.5,312C 215.299,311.765 218.632,310.432 221.5,308C 220.5,307.667 219.5,307.333 218.5,307C 220.167,306.667 221.833,306.333 223.5,306C 222.692,305.692 222.025,305.192 221.5,304.5C 223.833,303.833 226.167,303.167 228.5,302.5C 230.991,301.459 230.991,300.626 228.5,300C 230.878,299.489 233.212,298.822 235.5,298C 234.167,297.667 232.833,297.333 231.5,297C 233.473,296.505 235.473,296.338 237.5,296.5C 237.171,310.344 237.504,324.01 238.5,337.5C 238.833,337.5 239.167,337.5 239.5,337.5C 250.167,337.5 260.833,337.5 271.5,337.5C 272.497,316.006 272.831,294.34 272.5,272.5C 294.34,272.831 316.006,272.497 337.5,271.5C 337.5,260.833 337.5,250.167 337.5,239.5C 337.5,239.167 337.5,238.833 337.5,238.5C 323.673,237.669 309.673,237.169 295.5,237C 296.833,236.333 296.833,235.667 295.5,235C 296.623,233.956 297.956,233.29 299.5,233C 298.5,232.667 297.5,232.333 296.5,232C 298.608,231.64 300.608,230.973 302.5,230C 301.167,229.667 299.833,229.333 298.5,229C 300.256,228.798 301.922,228.298 303.5,227.5C 304.55,225.898 303.883,225.065 301.5,225C 303.259,224.02 304.926,223.353 306.5,223C 305.5,222.667 304.5,222.333 303.5,222C 305.167,221.667 306.833,221.333 308.5,221C 307.833,220.667 307.167,220.333 306.5,220C 312.529,217.135 312.529,215.469 306.5,215C 308.577,214.808 310.577,214.308 312.5,213.5C 311.975,212.808 311.308,212.308 310.5,212C 311.833,211.667 313.167,211.333 314.5,211C 314.167,210.667 313.833,210.333 313.5,210C 315.878,209.026 315.544,208.359 312.5,208C 314.384,207.784 316.051,207.117 317.5,206C 312.492,205.131 312.825,204.464 318.5,204C 318.167,203.667 317.833,203.333 317.5,203C 320.167,202.333 320.167,201.667 317.5,201C 319.044,200.71 320.377,200.044 321.5,199C 317.815,198.086 318.148,197.419 322.5,197C 321.692,196.692 321.025,196.192 320.5,195.5C 321.729,194.719 323.062,194.219 324.5,194C 324.167,193.667 323.833,193.333 323.5,193C 326.167,192.333 326.167,191.667 323.5,191C 327.272,189.611 327.272,188.611 323.5,188C 325.167,187.667 326.833,187.333 328.5,187C 328.167,186.667 327.833,186.333 327.5,186C 330.167,185.333 330.167,184.667 327.5,184C 328.833,183.333 330.167,182.667 331.5,182C 326.167,181.333 326.167,180.667 331.5,180C 331.167,179.667 330.833,179.333 330.5,179C 332.891,177.691 332.891,176.691 330.5,176C 334.5,175.333 334.5,174.667 330.5,174C 332.384,173.784 334.051,173.117 335.5,172C 331.815,171.086 332.148,170.419 336.5,170C 335.833,169.667 335.167,169.333 334.5,169C 337.167,168.333 337.167,167.667 334.5,167C 336.044,166.71 337.377,166.044 338.5,165C 334.815,164.086 335.148,163.419 339.5,163C 338.692,162.692 338.025,162.192 337.5,161.5C 339.867,161.305 341.2,159.639 341.5,156.5 Z"/></g>
<g><path style="opacity:1" fill="#0a8377" d="M 239.5,173.5 C 239.5,195.5 239.5,217.5 239.5,239.5C 217.5,239.5 195.5,239.5 173.5,239.5C 194.994,238.503 216.66,238.169 238.5,238.5C 238.169,216.66 238.503,194.994 239.5,173.5 Z"/></g>
<g><path style="opacity:1" fill="#067f74" d="M 271.5,173.5 C 272.497,194.994 272.831,216.66 272.5,238.5C 294.167,238.5 315.833,238.5 337.5,238.5C 337.5,238.833 337.5,239.167 337.5,239.5C 315.5,239.5 293.5,239.5 271.5,239.5C 271.5,217.5 271.5,195.5 271.5,173.5 Z"/></g>
<g><path style="opacity:1" fill="#050404" d="M 271.5,239.5 C 293.5,239.5 315.5,239.5 337.5,239.5C 337.5,250.167 337.5,260.833 337.5,271.5C 315.5,271.5 293.5,271.5 271.5,271.5C 271.5,293.5 271.5,315.5 271.5,337.5C 260.833,337.5 250.167,337.5 239.5,337.5C 239.5,315.5 239.5,293.5 239.5,271.5C 240.332,292.663 240.832,313.996 241,335.5C 241.5,320.837 241.667,306.17 241.5,291.5C 242.552,291.649 243.552,291.483 244.5,291C 240.774,289.957 241.107,289.457 245.5,289.5C 245.281,288.325 245.614,287.325 246.5,286.5C 247.812,287.46 249.146,287.294 250.5,286C 250.167,285.667 249.833,285.333 249.5,285C 252.167,284.333 252.167,283.667 249.5,283C 251.952,282.71 254.285,282.044 256.5,281C 251.492,280.131 251.825,279.464 257.5,279C 256.833,278.667 256.167,278.333 255.5,278C 260.833,277.333 260.833,276.667 255.5,276C 257.441,275.257 259.274,275.424 261,276.5C 261.5,275.333 262.333,274.5 263.5,274C 258.492,273.131 258.825,272.464 264.5,272C 263.044,271.577 262.544,270.744 263,269.5C 264.049,270.517 265.216,270.684 266.5,270C 271.396,267.876 271.396,266.543 266.5,266C 268.952,265.71 271.285,265.044 273.5,264C 271.915,263.915 270.582,263.749 269.5,263.5C 272.03,262.868 274.363,261.868 276.5,260.5C 275.271,259.719 273.938,259.219 272.5,259C 275.167,258.333 277.833,257.667 280.5,257C 279.167,256.667 277.833,256.333 276.5,256C 278.256,255.798 279.922,255.298 281.5,254.5C 282.09,253.201 283.09,252.368 284.5,252C 284.167,251.667 283.833,251.333 283.5,251C 284.5,250.667 285.5,250.333 286.5,250C 282.815,249.086 283.148,248.419 287.5,248C 287.043,247.586 286.709,247.086 286.5,246.5C 287.729,245.719 289.062,245.219 290.5,245C 290.167,244.667 289.833,244.333 289.5,244C 291.878,243.026 291.544,242.359 288.5,242C 304.167,241.667 319.833,241.333 335.5,241C 313.996,240.832 292.663,240.332 271.5,239.5 Z"/></g>
<g><path style="opacity:1" fill="#090a0a" d="M 123.5,241.5 C 123.174,250.349 123.507,259.016 124.5,267.5C 127.036,295.455 137.702,319.788 156.5,340.5C 156.5,340.833 156.5,341.167 156.5,341.5C 151.599,344.161 146.265,345.661 140.5,346C 141.167,346.333 141.833,346.667 142.5,347C 139.5,347.333 136.5,347.667 133.5,348C 134.833,348.333 136.167,348.667 137.5,349C 133.427,349.512 129.427,350.345 125.5,351.5C 128.048,354.759 130.714,357.926 133.5,361C 132.944,361.383 132.611,361.883 132.5,362.5C 128.933,359.023 125.6,355.356 122.5,351.5C 100.03,319.884 90.0298,284.551 92.5,245.5C 93.3283,251.987 93.8283,258.654 94,265.5C 94.4983,262.183 94.665,258.85 94.5,255.5C 102.295,254.016 109.295,252.183 115.5,250C 113.5,249.667 111.5,249.333 109.5,249C 112.817,248.502 116.15,248.335 119.5,248.5C 119.5,247.5 119.5,246.5 119.5,245.5C 120.5,245.5 121.5,245.5 122.5,245.5C 122.232,243.901 122.566,242.568 123.5,241.5 Z"/></g>
<g><path style="opacity:1" fill="#09998b" d="M 92.5,240.5 C 92.5,242.167 92.5,243.833 92.5,245.5C 90.0298,284.551 100.03,319.884 122.5,351.5C 121.275,351.031 120.275,351.698 119.5,353.5C 114.868,354.328 110.202,354.828 105.5,355C 107.833,355.333 110.167,355.667 112.5,356C 103.537,357.098 94.5367,357.765 85.5,358C 100.167,358.667 100.167,359.333 85.5,360C 86.1667,360.333 86.8333,360.667 87.5,361C 79.7592,361.351 72.0925,362.185 64.5,363.5C 63.2519,362.96 62.0852,362.293 61,361.5C 59.984,362.634 59.3173,362.301 59,360.5C 58,364.5 57,364.5 56,360.5C 55.5348,361.931 54.7014,363.097 53.5,364C 48.1771,364.499 42.8437,364.666 37.5,364.5C 37.5,330.5 37.5,296.5 37.5,262.5C 51.5905,263.084 65.2572,262.251 78.5,260C 75.1667,259.667 71.8333,259.333 68.5,259C 73.419,258.198 78.2523,258.365 83,259.5C 85.2276,257.887 87.7276,257.22 90.5,257.5C 90.3345,261.514 90.5012,265.514 91,269.5C 91.17,259.658 91.67,249.991 92.5,240.5 Z"/></g>
<g><path style="opacity:1" fill="#0e2522" d="M 125.5,234.5 C 124.68,245.479 124.347,256.479 124.5,267.5C 123.507,259.016 123.174,250.349 123.5,241.5C 123.927,238.99 124.593,236.657 125.5,234.5 Z"/></g>
<g><path style="opacity:1" fill="#047d72" d="M 337.5,271.5 C 316.006,272.497 294.34,272.831 272.5,272.5C 272.831,294.34 272.497,316.006 271.5,337.5C 271.5,315.5 271.5,293.5 271.5,271.5C 293.5,271.5 315.5,271.5 337.5,271.5 Z"/></g>
<g><path style="opacity:1" fill="#068074" d="M 173.5,271.5 C 195.5,271.5 217.5,271.5 239.5,271.5C 239.5,293.5 239.5,315.5 239.5,337.5C 239.167,337.5 238.833,337.5 238.5,337.5C 238.5,315.833 238.5,294.167 238.5,272.5C 216.66,272.831 194.994,272.497 173.5,271.5 Z"/></g>
</svg>
